<svg width="173" height="40" viewBox="0 0 173 40" fill="none" xmlns="http://www.w3.org/2000/svg">
<path d="M20.666 28.3333L28.666 20.3333L20.666 12.3333" stroke="#F7971D" stroke-width="3" stroke-linecap="round" stroke-linejoin="round"/>
<path d="M10.666 12.3333L2.66602 20.3333L10.666 28.3333" stroke="#F7971D" stroke-width="3" stroke-linecap="round" stroke-linejoin="round"/>
<path d="M41.2424 31.8333V9.43333H51.0344C53.4664 9.43333 55.5997 9.90266 57.4344 10.8413C59.269 11.78 60.6984 13.0813 61.7224 14.7453C62.7464 16.4093 63.2584 18.372 63.2584 20.6333C63.2584 22.8733 62.7464 24.836 61.7224 26.5213C60.6984 28.1853 59.269 29.4867 57.4344 30.4253C55.5997 31.364 53.4664 31.8333 51.0344 31.8333H41.2424ZM45.4024 28.3133H50.8424C52.5277 28.3133 53.9784 27.9933 55.1944 27.3533C56.4317 26.7133 57.381 25.8173 58.0424 24.6653C58.725 23.5133 59.0664 22.1693 59.0664 20.6333C59.0664 19.076 58.725 17.732 58.0424 16.6013C57.381 15.4493 56.4317 14.5533 55.1944 13.9133C53.9784 13.2733 52.5277 12.9533 50.8424 12.9533H45.4024V28.3133ZM75.3279 32.0573C73.4292 32.0573 71.7652 31.684 70.3359 30.9373C68.9279 30.1693 67.8292 29.124 67.0399 27.8013C66.2719 26.4787 65.8879 24.9747 65.8879 23.2893C65.8879 21.5827 66.2612 20.0787 67.0079 18.7773C67.7759 17.4547 68.8212 16.42 70.1439 15.6733C71.4879 14.9267 73.0132 14.5533 74.7199 14.5533C76.3839 14.5533 77.8665 14.916 79.1679 15.6413C80.4692 16.3667 81.4932 17.3907 82.2399 18.7133C82.9865 20.036 83.3599 21.5933 83.3599 23.3853C83.3599 23.556 83.3492 23.748 83.3279 23.9613C83.3279 24.1747 83.3172 24.3773 83.2959 24.5693H69.0559V21.9133H81.1839L79.6159 22.7453C79.6372 21.764 79.4345 20.9 79.0079 20.1533C78.5812 19.4067 77.9945 18.82 77.2479 18.3933C76.5225 17.9667 75.6799 17.7533 74.7199 17.7533C73.7385 17.7533 72.8745 17.9667 72.1279 18.3933C71.4025 18.82 70.8265 19.4173 70.3999 20.1853C69.9945 20.932 69.7919 21.8173 69.7919 22.8413V23.4813C69.7919 24.5053 70.0265 25.412 70.4959 26.2013C70.9652 26.9907 71.6265 27.5987 72.4799 28.0253C73.3332 28.452 74.3145 28.6653 75.4239 28.6653C76.3839 28.6653 77.2479 28.516 78.0159 28.2173C78.7839 27.9187 79.4665 27.4493 80.0639 26.8093L82.2079 29.2733C81.4399 30.1693 80.4692 30.8627 79.2959 31.3533C78.1439 31.8227 76.8212 32.0573 75.3279 32.0573ZM91.4336 31.8333L84.1056 14.7453H88.2656L94.5696 29.8173H92.5216L99.0496 14.7453H102.89L95.5616 31.8333H91.4336Z" fill="white"/>
<path d="M121.94 9.43333H126.1V31.8333H121.94V9.43333ZM110.356 31.8333H106.196V9.43333H110.356V31.8333ZM122.26 22.2333H110.004V18.6813H122.26V22.2333ZM138.95 32.0573C137.499 32.0573 136.219 31.7907 135.11 31.2573C134 30.7027 133.136 29.8707 132.518 28.7613C131.899 27.6307 131.59 26.212 131.59 24.5053V14.7453H135.59V23.9613C135.59 25.4973 135.931 26.6493 136.614 27.4173C137.318 28.164 138.31 28.5373 139.59 28.5373C140.528 28.5373 141.339 28.3453 142.022 27.9613C142.726 27.5773 143.27 27.0013 143.654 26.2333C144.059 25.4653 144.262 24.516 144.262 23.3853V14.7453H148.262V31.8333H144.454V27.2253L145.126 28.6333C144.55 29.7427 143.707 30.596 142.598 31.1933C141.488 31.7693 140.272 32.0573 138.95 32.0573ZM162.971 32.0573C161.52 32.0573 160.23 31.7373 159.099 31.0973C157.968 30.4573 157.072 29.4973 156.411 28.2173C155.771 26.916 155.451 25.2733 155.451 23.2893C155.451 21.284 155.782 19.6413 156.443 18.3613C157.126 17.0813 158.032 16.132 159.163 15.5133C160.315 14.8733 161.584 14.5533 162.971 14.5533C164.656 14.5533 166.139 14.916 167.419 15.6413C168.72 16.3667 169.744 17.38 170.491 18.6813C171.259 19.9827 171.643 21.5187 171.643 23.2893C171.643 25.06 171.259 26.596 170.491 27.8973C169.744 29.1987 168.72 30.2227 167.419 30.9693C166.139 31.6947 164.656 32.0573 162.971 32.0573ZM153.499 31.8333V8.08933H157.499V18.7133L157.179 23.2573L157.307 27.8013V31.8333H153.499ZM162.523 28.6333C163.483 28.6333 164.336 28.42 165.083 27.9933C165.851 27.5667 166.459 26.948 166.907 26.1373C167.355 25.3267 167.579 24.3773 167.579 23.2893C167.579 22.18 167.355 21.2307 166.907 20.4413C166.459 19.6307 165.851 19.012 165.083 18.5853C164.336 18.1587 163.483 17.9453 162.523 17.9453C161.563 17.9453 160.699 18.1587 159.931 18.5853C159.163 19.012 158.555 19.6307 158.107 20.4413C157.659 21.2307 157.435 22.18 157.435 23.2893C157.435 24.3773 157.659 25.3267 158.107 26.1373C158.555 26.948 159.163 27.5667 159.931 27.9933C160.699 28.42 161.563 28.6333 162.523 28.6333Z" fill="#F7971D"/>
</svg>
