<svg width="24" height="25" viewBox="0 0 24 25" fill="none" xmlns="http://www.w3.org/2000/svg">
<path d="M11 4.6665H4C3.46957 4.6665 2.96086 4.87722 2.58579 5.25229C2.21071 5.62736 2 6.13607 2 6.6665V20.6665C2 21.1969 2.21071 21.7056 2.58579 22.0807C2.96086 22.4558 3.46957 22.6665 4 22.6665H18C18.5304 22.6665 19.0391 22.4558 19.4142 22.0807C19.7893 21.7056 20 21.1969 20 20.6665V13.6665" stroke="white" stroke-linecap="round" stroke-linejoin="round"/>
<path d="M18.5 3.16673C18.8978 2.76891 19.4374 2.54541 20 2.54541C20.5626 2.54541 21.1022 2.76891 21.5 3.16673C21.8978 3.56456 22.1213 4.10412 22.1213 4.66673C22.1213 5.22934 21.8978 5.76891 21.5 6.16673L12 15.6667L8 16.6667L9 12.6667L18.5 3.16673Z" stroke="white" stroke-linecap="round" stroke-linejoin="round"/>
</svg>
