<svg width="19" height="19" viewBox="0 0 19 19" fill="none" xmlns="http://www.w3.org/2000/svg">
<path d="M7.63554 12.0511V15.451C7.63554 16.1273 7.90853 16.7759 8.39446 17.2541C8.88039 17.7323 9.53945 18.001 10.2267 18.001L13.6815 10.3511V1.00128H3.93888C3.52229 0.996649 3.11804 1.14034 2.8006 1.40587C2.48317 1.67141 2.27394 2.04089 2.21147 2.44626L1.01956 10.0961C0.981983 10.3398 0.998681 10.5885 1.0685 10.8252C1.13832 11.0619 1.25958 11.2807 1.4239 11.4667C1.58821 11.6527 1.79164 11.8012 2.0201 11.9022C2.24856 12.0031 2.49658 12.0539 2.74697 12.0511H7.63554ZM13.6815 1.00128H15.9876C16.4764 0.992776 16.9514 1.1612 17.3223 1.47457C17.6933 1.78795 17.9345 2.22446 18 2.70125V8.65114C17.9345 9.12794 17.6933 9.56445 17.3223 9.87783C16.9514 10.1912 16.4764 10.3596 15.9876 10.3511H13.6815" fill="#F7971D"/>
<path d="M13.6815 10.3511L10.2267 18.001C9.53945 18.001 8.88039 17.7323 8.39446 17.2541C7.90853 16.7759 7.63554 16.1273 7.63554 15.451V12.0511H2.74697C2.49658 12.0539 2.24856 12.0031 2.0201 11.9022C1.79164 11.8012 1.58821 11.6527 1.4239 11.4667C1.25958 11.2807 1.13832 11.0619 1.0685 10.8252C0.998681 10.5885 0.981983 10.3398 1.01956 10.0961L2.21147 2.44626C2.27394 2.04089 2.48317 1.67141 2.8006 1.40587C3.11804 1.14034 3.52229 0.996649 3.93888 1.00128H13.6815M13.6815 10.3511V1.00128M13.6815 10.3511H15.9876C16.4764 10.3596 16.9514 10.1912 17.3223 9.87783C17.6933 9.56445 17.9345 9.12794 18 8.65115V2.70125C17.9345 2.22446 17.6933 1.78795 17.3223 1.47457C16.9514 1.1612 16.4764 0.992776 15.9876 1.00128H13.6815" stroke="#2A2A2D" stroke-linecap="round" stroke-linejoin="round"/>
</svg>
