<svg width="19" height="19" viewBox="0 0 19 19" fill="none" xmlns="http://www.w3.org/2000/svg">
<path d="M13.6815 10.3501L10.2267 18C9.53945 18 8.88039 17.7313 8.39446 17.2531C7.90853 16.7749 7.63554 16.1263 7.63554 15.45V12.0501H2.74697C2.49658 12.0529 2.24856 12.0021 2.0201 11.9012C1.79164 11.8003 1.58821 11.6517 1.4239 11.4657C1.25958 11.2798 1.13832 11.0609 1.0685 10.8242C0.998681 10.5876 0.981983 10.3388 1.01956 10.0951L2.21147 2.44528C2.27394 2.03992 2.48317 1.67043 2.8006 1.40489C3.11804 1.13936 3.52229 0.995673 3.93888 1.00031H13.6815M13.6815 10.3501V1.00031M13.6815 10.3501H15.9876C16.4764 10.3586 16.9514 10.1902 17.3223 9.87685C17.6933 9.56347 17.9345 9.12696 18 8.65017V2.70028C17.9345 2.22349 17.6933 1.78697 17.3223 1.47359C16.9514 1.16022 16.4764 0.9918 15.9876 1.00031H13.6815" stroke="white" stroke-linecap="round" stroke-linejoin="round"/>
</svg>
