<svg width="37" height="36" viewBox="0 0 37 36" fill="none" xmlns="http://www.w3.org/2000/svg">
<path d="M13.0409 1.18403C9.44398 2.43184 6.34197 4.80024 4.19054 7.94134C2.03911 11.0824 0.951663 14.8307 1.08793 18.6355C1.2242 22.4403 2.577 26.1011 4.94762 29.0803C7.31825 32.0594 10.5817 34.1999 14.2587 35.1872C17.2398 35.9564 20.363 35.9901 23.36 35.2856C26.075 34.6758 28.585 33.3713 30.6444 31.5C32.7877 29.4928 34.3435 26.9394 35.1444 24.1143C36.0149 21.0422 36.1698 17.8113 35.5972 14.67H18.8572V21.614H28.5519C28.3581 22.7216 27.9429 23.7786 27.3311 24.7219C26.7193 25.6653 25.9235 26.4754 24.9913 27.104C23.8074 27.8871 22.4729 28.414 21.0734 28.6509C19.6698 28.9119 18.2302 28.9119 16.8266 28.6509C15.404 28.3568 14.0582 27.7696 12.875 26.9268C10.9742 25.5813 9.5469 23.6698 8.79687 21.465C8.03417 19.2189 8.03417 16.7839 8.79687 14.5378C9.33076 12.9634 10.2133 11.5299 11.3787 10.3443C12.7124 8.96269 14.4009 7.97508 16.2589 7.48987C18.1169 7.00465 20.0726 7.04058 21.9116 7.59371C23.3481 8.03469 24.6618 8.80516 25.7478 9.84371C26.8409 8.75621 27.9322 7.6659 29.0216 6.57278C29.5841 5.98496 30.1972 5.42528 30.7512 4.8234C29.0935 3.28068 27.1475 2.08025 25.025 1.2909C21.1598 -0.112564 16.9306 -0.150281 13.0409 1.18403Z" fill="white"/>
<path d="M13.0409 1.18405C16.9302 -0.151164 21.1595 -0.11444 25.025 1.28811C27.1479 2.08282 29.093 3.28903 30.7484 4.83749C30.1859 5.43936 29.5925 6.00186 29.0187 6.58686C27.9275 7.67624 26.8372 8.76186 25.7478 9.84374C24.6618 8.80519 23.3481 8.03471 21.9116 7.59374C20.0732 7.03867 18.1176 7.00066 16.2591 7.48389C14.4006 7.96712 12.7111 8.95291 11.3759 10.3331C10.2105 11.5187 9.32795 12.9522 8.79406 14.5266L2.96375 10.0125C5.05065 5.87407 8.66398 2.70849 13.0409 1.18405Z" fill="#E33629"/>
<path d="M1.41688 14.4843C1.73025 12.9312 2.25051 11.4272 2.96375 10.0125L8.79406 14.5378C8.03135 16.7838 8.03135 19.2189 8.79406 21.465C6.85156 22.965 4.90813 24.4725 2.96375 25.9875C1.17824 22.4333 0.633687 18.3839 1.41688 14.4843Z" fill="#F8BD00"/>
<path d="M18.8572 14.6672H35.5972C36.1698 17.8086 36.0149 21.0394 35.1444 24.1116C34.3435 26.9367 32.7877 29.4901 30.6444 31.4972C28.7628 30.0291 26.8728 28.5722 24.9912 27.1041C25.9241 26.4749 26.7203 25.6638 27.3321 24.7195C27.944 23.7752 28.3588 22.717 28.5519 21.6085H18.8572C18.8544 19.2966 18.8572 16.9819 18.8572 14.6672Z" fill="#587DBD"/>
<path d="M2.96094 25.9875C4.90531 24.4875 6.84875 22.98 8.79125 21.465C9.54277 23.6705 10.9721 25.5822 12.875 26.9268C14.0619 27.7657 15.4106 28.3481 16.835 28.6368C18.2386 28.8978 19.6783 28.8978 21.0819 28.6368C22.4814 28.3999 23.8159 27.873 24.9997 27.09C26.8813 28.5581 28.7712 30.015 30.6528 31.4831C28.5938 33.3554 26.0837 34.6609 23.3684 35.2715C20.3715 35.9761 17.2482 35.9423 14.2672 35.1731C11.9095 34.5436 9.70721 33.4338 7.79844 31.9134C5.77811 30.3094 4.128 28.288 2.96094 25.9875Z" fill="#319F43"/>
</svg>
