<svg width="37" height="36" viewBox="0 0 37 36" fill="none" xmlns="http://www.w3.org/2000/svg">
<path d="M18.5 3C16.5302 3 14.5796 3.38799 12.7597 4.14181C10.9399 4.89563 9.28628 6.00052 7.8934 7.3934C5.08035 10.2064 3.5 14.0218 3.5 18C3.5 24.63 7.805 30.255 13.76 32.25C14.51 32.37 14.75 31.905 14.75 31.5V28.965C10.595 29.865 9.71 26.955 9.71 26.955C9.02 25.215 8.045 24.75 8.045 24.75C6.68 23.82 8.15 23.85 8.15 23.85C9.65 23.955 10.445 25.395 10.445 25.395C11.75 27.675 13.955 27 14.81 26.64C14.945 25.665 15.335 25.005 15.755 24.63C12.425 24.255 8.93 22.965 8.93 17.25C8.93 15.585 9.5 14.25 10.475 13.185C10.325 12.81 9.8 11.25 10.625 9.225C10.625 9.225 11.885 8.82 14.75 10.755C15.935 10.425 17.225 10.26 18.5 10.26C19.775 10.26 21.065 10.425 22.25 10.755C25.115 8.82 26.375 9.225 26.375 9.225C27.2 11.25 26.675 12.81 26.525 13.185C27.5 14.25 28.07 15.585 28.07 17.25C28.07 22.98 24.56 24.24 21.215 24.615C21.755 25.08 22.25 25.995 22.25 27.39V31.5C22.25 31.905 22.49 32.385 23.255 32.25C29.21 30.24 33.5 24.63 33.5 18C33.5 16.0302 33.112 14.0796 32.3582 12.2597C31.6044 10.4399 30.4995 8.78628 29.1066 7.3934C27.7137 6.00052 26.0601 4.89563 24.2403 4.14181C22.4204 3.38799 20.4698 3 18.5 3Z" fill="black"/>
</svg>
