<svg width="20" height="21" viewBox="0 0 20 21" fill="none" xmlns="http://www.w3.org/2000/svg">
<g clip-path="url(#clip0_1293_2278)">
<path d="M19.1666 10.2034C19.1698 11.4255 18.8843 12.6311 18.3333 13.7219C17.68 15.0291 16.6757 16.1285 15.4328 16.8972C14.1899 17.6658 12.7576 18.0732 11.2963 18.0737C10.0742 18.0769 8.86861 17.7914 7.77777 17.2404L2.5 18.9997L4.25926 13.7219C3.70827 12.6311 3.42274 11.4255 3.42592 10.2034C3.42649 8.74206 3.8339 7.30974 4.60251 6.06687C5.37113 4.824 6.4706 3.81967 7.77777 3.16637C8.86861 2.61538 10.0742 2.32985 11.2963 2.33303H11.7592C13.6892 2.43951 15.5121 3.25411 16.8788 4.62086C18.2456 5.98762 19.0602 7.81048 19.1666 9.74043V10.2034Z" stroke="white" stroke-width="2" stroke-linecap="round" stroke-linejoin="round"/>
</g>
<defs>
<clipPath id="clip0_1293_2278">
<rect width="20" height="20" fill="white" transform="translate(0 0.666504)"/>
</clipPath>
</defs>
</svg>
