<svg width="19" height="19" viewBox="0 0 19 19" fill="none" xmlns="http://www.w3.org/2000/svg">
<path d="M18 9.19478C18.0032 10.4413 17.712 11.671 17.15 12.7837C16.4836 14.117 15.4592 15.2384 14.1915 16.0224C12.9237 16.8064 11.4628 17.222 9.97221 17.2225C8.72567 17.2258 7.49599 16.9346 6.38332 16.3726L1 18.167L2.79444 12.7837C2.23243 11.671 1.94119 10.4413 1.94444 9.19478C1.94502 7.70422 2.36058 6.24326 3.14456 4.97553C3.92855 3.70781 5.05001 2.68339 6.38332 2.01702C7.49599 1.45501 8.72567 1.16377 9.97221 1.16702H10.4444C12.413 1.27562 14.2723 2.10651 15.6664 3.5006C17.0605 4.89469 17.8914 6.75402 18 8.72256V9.19478Z" stroke="white" stroke-linecap="round" stroke-linejoin="round"/>
</svg>
