<svg width="64" height="64" viewBox="0 0 64 64" fill="none" xmlns="http://www.w3.org/2000/svg">
<circle cx="32" cy="32" r="32" fill="black"/>
<path d="M49.32 31.768C49.32 34.344 48.904 36.688 48.072 38.8C47.256 40.912 46.096 42.728 44.592 44.248C43.088 45.752 41.288 46.92 39.192 47.752C37.096 48.584 34.768 49 32.208 49L19.248 49L19.248 14.536L32.208 14.536C34.768 14.536 37.096 14.952 39.192 15.784C41.288 16.616 43.088 17.792 44.592 19.312C46.096 20.816 47.256 22.632 48.072 24.76C48.904 26.872 49.32 29.208 49.32 31.768ZM44.088 31.768C44.088 29.72 43.808 27.888 43.248 26.272C42.688 24.64 41.888 23.264 40.848 22.144C39.824 21.008 38.576 20.144 37.104 19.552C35.648 18.96 34.016 18.664 32.208 18.664L24.384 18.664L24.384 44.872L32.208 44.872C34.016 44.872 35.648 44.576 37.104 43.984C38.576 43.392 39.824 42.536 40.848 41.416C41.888 40.28 42.688 38.904 43.248 37.288C43.808 35.672 44.088 33.832 44.088 31.768Z" fill="url(#paint0_linear_1_29)"/>
<defs>
<linearGradient id="paint0_linear_1_29" x1="33.5" y1="0.999998" x2="33.5" y2="59" gradientUnits="userSpaceOnUse">
<stop stop-color="#C07D00"/>
<stop offset="0.51" stop-color="#FDD280"/>
<stop offset="1" stop-color="#FCFCFC"/>
</linearGradient>
</defs>
</svg>
