<svg width="20" height="21" viewBox="0 0 20 21" fill="none" xmlns="http://www.w3.org/2000/svg">
<g clip-path="url(#clip0_1292_413)">
<path d="M19.1666 9.87038C19.1698 11.0925 18.8843 12.2981 18.3333 13.3889C17.68 14.6961 16.6757 15.7955 15.4328 16.5642C14.1899 17.3328 12.7576 17.7402 11.2963 17.7407C10.0742 17.7439 8.86861 17.4584 7.77777 16.9074L2.5 18.6667L4.25926 13.3889C3.70827 12.2981 3.42274 11.0925 3.42592 9.87038C3.42649 8.40905 3.8339 6.97673 4.60251 5.73386C5.37113 4.49099 6.4706 3.48666 7.77777 2.83336C8.86861 2.28237 10.0742 1.99684 11.2963 2.00003H11.7592C13.6892 2.1065 15.5121 2.9211 16.8788 4.28786C18.2456 5.65461 19.0602 7.47747 19.1666 9.40742V9.87038Z" stroke="white" stroke-width="2" stroke-linecap="round" stroke-linejoin="round"/>
</g>
<defs>
<clipPath id="clip0_1292_413">
<rect width="20" height="20" fill="white" transform="translate(0 0.333328)"/>
</clipPath>
</defs>
</svg>
