<svg width="24" height="25" viewBox="0 0 24 25" fill="none" xmlns="http://www.w3.org/2000/svg">
<path d="M18 8.33301C18 6.74171 17.3679 5.21559 16.2426 4.09037C15.1174 2.96515 13.5913 2.33301 12 2.33301C10.4087 2.33301 8.88258 2.96515 7.75736 4.09037C6.63214 5.21559 6 6.74171 6 8.33301C6 15.333 3 17.333 3 17.333H21C21 17.333 18 15.333 18 8.33301Z" stroke="#E6E6E6" stroke-width="2" stroke-linecap="round" stroke-linejoin="round"/>
<path d="M13.7295 21.333C13.5537 21.6361 13.3014 21.8877 12.9978 22.0625C12.6941 22.2374 12.3499 22.3295 11.9995 22.3295C11.6492 22.3295 11.3049 22.2374 11.0013 22.0625C10.6977 21.8877 10.4453 21.6361 10.2695 21.333" stroke="#E6E6E6" stroke-width="2" stroke-linecap="round" stroke-linejoin="round"/>
</svg>
